# xmcd
#
# Track frame offsets:
#	150
#	13530
#	25332
#	37873
#	58418
#	78031
#	96008
#	109140
#	124869
#	137466
#	155988
#	170881
#	183157
#	196704
#
# Disc length: 2813 seconds
#
# Revision: 1
# Processed by: cddbd v1.5.2PL0 Copyright (c) Steve Scherf et al.
# Submitted via: audiograbber 1.83.01
#
DISCID=b20afb0e
DTITLE=Gadjo Manouche - Saperlot
DYEAR=2013
DGENRE=gipsy swing
TTITLE0=Lady be good
TTITLE1=Moscow night
TTITLE2=Belleville
TTITLE3=Ballade pour le Singe de Django
TTITLE4=Sweet Georgia Brown
TTITLE5=Jardin d'hiver
TTITLE6=Charleston
TTITLE7=Jersey Bounce
TTITLE8=Swing Bellevue
TTITLE9=I can't give you anything but love
TTITLE10=Swing oublie
TTITLE11=Sheik of Araby
TTITLE12=Swing 48
TTITLE13=Barkom do Lokruma
EXTD=
EXTT0=
EXTT1=
EXTT2=
EXTT3=
EXTT4=
EXTT5=
EXTT6=
EXTT7=
EXTT8=
EXTT9=
EXTT10=
EXTT11=
EXTT12=
EXTT13=
PLAYORDER=
